<svg xmlns="http://www.w3.org/2000/svg" viewBox="0 0 100 100" width="100" height="100">
  <circle cx="50" cy="50" r="48" fill="#FFFFFF" stroke="#132257" stroke-width="2"/>
  <!-- Simplified cockerel silhouette -->
  <path d="M48,22 C48,22 51,19 54,20 C57,21 56,24 54,25 C57,25 58,28 56,30 C54,32 50,33 48,34 C49,38 52,43 55,47 C57,50 56,54 53,55 C50,56 46,54 44,51 C41,47 43,40 45,36 C43,38 41,41 38,40 C35,39 37,34 40,33 C37,33 35,30 38,28 C41,26 44,28 47,30 C46,26 45,23 48,22 Z" fill="#132257"/>
  <!-- Feet -->
  <line x1="47" y1="52" x2="47" y2="65" stroke="#132257" stroke-width="2"/>
  <line x1="51" y1="53" x2="51" y2="65" stroke="#132257" stroke-width="2"/>
  <!-- Football -->
  <circle cx="49" cy="72" r="9" fill="#FFFFFF" stroke="#132257" stroke-width="2"/>
  <path d="M43,72 L55,72 M49,66 L49,78" stroke="#132257" stroke-width="1"/>
  <path d="M45,69 L53,75 M45,75 L53,69" stroke="#132257" stroke-width="1"/>
</svg>
