<svg xmlns="http://www.w3.org/2000/svg" viewBox="0 0 100 100" width="100" height="100">
  <circle cx="50" cy="50" r="48" fill="#6CABDD" stroke="#FFFFFF" stroke-width="2"/>
  <circle cx="50" cy="50" r="40" fill="#FFFFFF" stroke="#004C8C" stroke-width="1.5"/>
  <circle cx="50" cy="50" r="30" fill="#6CABDD"/>
  <!-- Shield with ship and red rose in simplified vector -->
  <path d="M38,42 C38,32 50,30 50,30 C50,30 62,32 62,42 C62,56 50,65 50,65 C50,65 38,56 38,42 Z" fill="#FFFFFF" stroke="#004C8C" stroke-width="1.5"/>
  <!-- Ship -->
  <path d="M44,38 L56,38 L53,44 L47,44 Z" fill="#F1C40F"/>
  <path d="M49,38 L49,34 L51,34 L51,38 Z" fill="#004C8C"/>
  <!-- Red rose -->
  <circle cx="50" cy="52" r="4" fill="#E74C3C"/>
  <circle cx="50" cy="48" r="2" fill="#E74C3C"/>
  <circle cx="47" cy="52" r="2" fill="#E74C3C"/>
  <circle cx="53" cy="52" r="2" fill="#E74C3C"/>
  <circle cx="50" cy="56" r="2" fill="#E74C3C"/>
</svg>
